<svg width="114" height="40" viewBox="0 0 114 40" fill="none" xmlns="http://www.w3.org/2000/svg">
<path d="M12.29 12.7081C13.5261 12.7081 14.7639 12.7081 16.0403 12.7081C16.0403 13.5055 16.0403 14.2821 16.0403 15.1604C17.0368 13.1111 18.7153 12.3672 20.7959 12.412C22.8939 12.4567 24.4867 13.3832 25.4326 15.2534C25.7665 14.8332 26.0708 14.3751 26.4502 13.9911C27.4188 13.0095 28.6356 12.5411 30.0081 12.4292C30.9155 12.3551 31.809 12.4326 32.6744 12.7202C34.2742 13.2489 35.2585 14.3785 35.8233 15.9009C36.2289 16.9944 36.3425 18.1361 36.3443 19.2916C36.3478 21.9815 36.346 24.6713 36.346 27.3612C36.346 27.4284 36.3373 27.4972 36.3303 27.592C35.1082 27.592 33.8913 27.592 32.6325 27.592C32.6325 27.4576 32.6325 27.325 32.6325 27.1924C32.6325 24.6954 32.6465 22.2002 32.622 19.7032C32.6167 19.1297 32.5485 18.5373 32.3877 17.988C32.0572 16.8635 31.281 16.1419 30.0781 16.0076C28.7161 15.8561 27.5569 16.2435 26.8068 17.4628C26.4397 18.0586 26.2578 18.7199 26.2508 19.4121C26.2246 21.9866 26.2141 24.5611 26.2001 27.1373C26.2001 27.2837 26.2001 27.4301 26.2001 27.5988C24.9413 27.5988 23.7104 27.5988 22.4394 27.5988C22.4394 27.4559 22.4394 27.3216 22.4394 27.189C22.4376 24.5215 22.4446 21.854 22.4254 19.1866C22.4184 18.3255 22.1928 17.5075 21.5931 16.8514C20.663 15.8337 19.4863 15.7993 18.2747 16.1798C16.8865 16.6155 16.2763 17.6815 16.1154 19.0367C16.0595 19.5103 16.0578 19.9925 16.056 20.4695C16.0508 22.703 16.0543 24.9383 16.0543 27.1718C16.0543 27.3061 16.0543 27.4421 16.0543 27.6212C14.7832 27.6212 13.5366 27.6212 12.2917 27.6212C12.29 22.6479 12.29 17.678 12.29 12.7081Z" fill="#0A0103"/>
<path d="M51.0412 14.475C51.0412 13.9619 51.0412 13.3557 51.0412 12.7289C52.2983 12.7289 53.5204 12.7289 54.7705 12.7289C54.7705 17.6695 54.7705 22.6187 54.7705 27.592C53.5501 27.592 52.321 27.592 51.0604 27.592C51.0604 26.9703 51.0604 26.3487 51.0604 25.7064C50.9975 25.727 50.9573 25.727 50.9415 25.7477C49.9467 27.0737 48.5357 27.6833 46.9412 27.871C44.497 28.1603 42.3692 27.4422 40.6558 25.6771C39.4214 24.4062 38.7955 22.8529 38.6171 21.1136C38.4266 19.2624 38.6923 17.4869 39.6836 15.8889C41.2275 13.4005 43.5388 12.2863 46.4779 12.4223C47.8364 12.4861 49.0812 12.8942 50.1582 13.738C50.4712 13.9843 50.7702 14.2477 51.0412 14.475ZM46.5933 15.8492C44.1892 15.851 42.3674 17.685 42.3639 20.1062C42.3604 22.5481 44.2137 24.4579 46.5968 24.4647C49.0428 24.4734 50.9835 22.5464 50.98 20.1165C50.9747 17.7435 49.0253 15.8475 46.5933 15.8492Z" fill="#0A0103"/>
<path d="M83.222 14.4836C83.222 13.9601 83.222 13.3522 83.222 12.7271C84.4791 12.7271 85.7012 12.7271 86.9496 12.7271C86.9496 17.6728 86.9496 22.6221 86.9496 27.5937C85.724 27.5937 84.4949 27.5937 83.2343 27.5937C83.2343 26.9668 83.2343 26.3469 83.2343 25.6632C82.9405 25.968 82.7115 26.2487 82.4405 26.4795C81.2096 27.5265 79.7357 27.945 78.1465 27.9346C76.0519 27.9208 74.2423 27.1717 72.8034 25.6512C71.562 24.3372 70.9361 22.7529 70.7805 20.974C70.6161 19.0953 70.9204 17.306 71.9694 15.7114C73.5237 13.3505 75.7861 12.2931 78.622 12.4205C79.9928 12.4825 81.2498 12.8889 82.3356 13.7414C82.6486 13.9876 82.944 14.2511 83.222 14.4836ZM78.7636 15.8492C76.3614 15.8526 74.5395 17.6883 74.5378 20.1096C74.536 22.5497 76.3928 24.4595 78.7741 24.4647C81.2219 24.4698 83.1608 22.5428 83.1538 20.113C83.1486 17.74 81.1991 15.8457 78.7636 15.8492Z" fill="#0A0103"/>
<path d="M68.7908 17.034C67.6071 17.034 66.4322 17.034 65.2608 17.034C64.8796 15.4996 63.2729 14.859 61.9388 15.6994C60.9615 16.3159 60.9842 17.5472 62.0315 18.0207C62.6837 18.3169 63.4075 18.4616 64.1051 18.6562C65.1804 18.9558 66.2801 19.1762 67.254 19.76C69.3713 21.0292 69.9622 23.6932 68.5303 25.6615C67.7627 26.7154 66.6578 27.2992 65.4111 27.6281C63.3778 28.1654 61.4003 28.0535 59.5471 26.9978C58.0469 26.142 57.1885 24.8573 57.0538 23.1335C57.0504 23.0905 57.0591 23.0457 57.0626 22.9837C58.2253 22.9837 59.3775 22.9837 60.5594 22.9837C60.68 24.0066 61.2989 24.6076 62.2938 24.8453C63.105 25.0381 63.904 24.9675 64.6576 24.6007C65.301 24.2873 65.5825 23.7741 65.5195 23.1421C65.4688 22.6376 65.1559 22.319 64.717 22.1606C64.0911 21.935 63.4425 21.7679 62.7973 21.5974C61.7623 21.3236 60.7237 21.0722 59.7639 20.5694C57.4175 19.3398 57.0329 16.8049 57.8721 15.1466C58.4648 13.9739 59.4561 13.2196 60.6905 12.8098C62.8358 12.0985 64.9338 12.2277 66.885 13.4159C68.1701 14.1995 68.7681 15.4083 68.817 16.8859C68.8205 16.9307 68.8048 16.9737 68.7908 17.034Z" fill="#0A0103"/>
<path d="M94.0005 12.7391C94.0005 17.6935 94.0005 22.6341 94.0005 27.5954C92.7574 27.5954 91.5283 27.5954 90.2765 27.5954C90.2765 22.6462 90.2765 17.7073 90.2765 12.7391C91.5021 12.7391 92.7312 12.7391 94.0005 12.7391Z" fill="#0A0103"/>
<path d="M94.0008 12.7391H90.2785V22.765L94.0008 18.248V12.7391Z" fill="#ED0331"/>
<path d="M92.1233 9.38457C93.283 9.38457 94.2231 8.4586 94.2231 7.31637C94.2231 6.17413 93.283 5.24817 92.1233 5.24817C90.9636 5.24817 90.0234 6.17413 90.0234 7.31637C90.0234 8.4586 90.9636 9.38457 92.1233 9.38457Z" fill="#0A0103"/>
<path d="M96.6033 25.996C96.6033 25.6362 96.6904 25.3022 96.8644 24.994C97.0403 24.6858 97.2827 24.4436 97.5915 24.2672C97.9022 24.0891 98.2372 24 98.5966 24C98.9559 24 99.29 24.0891 99.5988 24.2672C99.9076 24.4436 100.149 24.6858 100.323 24.994C100.499 25.3022 100.587 25.6362 100.587 25.996C100.587 26.3469 100.503 26.6756 100.334 26.982C100.166 27.2884 99.9263 27.5351 99.6156 27.7221C99.3068 27.9074 98.9671 28 98.5966 28C98.2279 28 97.8882 27.9083 97.5775 27.7248C97.2687 27.5395 97.0291 27.2937 96.8588 26.9873C96.6885 26.6809 96.6033 26.3505 96.6033 25.996ZM96.9262 25.996C96.9262 26.3024 97.001 26.5865 97.1508 26.8484C97.3005 27.1084 97.5036 27.3124 97.76 27.4603C98.0182 27.6081 98.2971 27.682 98.5966 27.682C98.8979 27.682 99.1777 27.6072 99.436 27.4576C99.6942 27.3062 99.8964 27.1013 100.042 26.843C100.19 26.5847 100.264 26.3024 100.264 25.996C100.264 25.6914 100.19 25.4108 100.042 25.1543C99.8964 24.896 99.6942 24.6929 99.436 24.5451C99.1777 24.3955 98.8979 24.3206 98.5966 24.3206C98.2971 24.3206 98.0182 24.3946 97.76 24.5424C97.5017 24.6885 97.2977 24.8916 97.148 25.1516C97.0001 25.4117 96.9262 25.6932 96.9262 25.996ZM98.1839 26.1964V27.0995H97.788V24.831H98.5629C98.8492 24.831 99.071 24.8898 99.2282 25.0073C99.3873 25.1231 99.4668 25.2924 99.4668 25.515C99.4668 25.7341 99.3471 25.9016 99.1075 26.0174C99.3358 26.1064 99.4509 26.2881 99.4528 26.5625V26.7254C99.4528 26.8786 99.4687 26.9891 99.5005 27.0568V27.0995H99.0935C99.0673 27.0354 99.0542 26.9214 99.0542 26.7575C99.0542 26.5918 99.0513 26.4939 99.0457 26.4636C99.0158 26.2926 98.8932 26.2035 98.678 26.1964H98.1839ZM98.1839 25.8544H98.6218C98.7566 25.8508 98.8651 25.8196 98.9475 25.7609C99.0298 25.7021 99.071 25.6246 99.071 25.5284C99.071 25.3984 99.0345 25.3066 98.9615 25.2532C98.8885 25.198 98.7584 25.1703 98.5713 25.1703H98.1839V25.8544Z" fill="#0A0103"/>
</svg>
