<svg width="159" height="23" viewBox="0 0 159 23" fill="none" xmlns="http://www.w3.org/2000/svg">
<g clip-path="url(#clip0_1_7)">
<path fill-rule="evenodd" clip-rule="evenodd" d="M4.6087 9.3088C5.57343 9.53913 6.74147 9.6739 8 9.6739C9.25853 9.6739 10.4266 9.53913 11.3913 9.3088C12.3048 9.09073 13.3322 8.5777 13.7854 8.2216L8.28287 17.0464C8.15237 17.2557 7.84763 17.2557 7.71713 17.0464L2.21458 8.2216C2.66777 8.5777 3.6952 9.09073 4.6087 9.3088Z" fill="#0D0D1C"/>
<path fill-rule="evenodd" clip-rule="evenodd" d="M13.3327 7.57867C13.3315 7.58457 13.3292 7.59483 13.3249 7.6098C13.3145 7.64663 13.2983 7.69137 13.2782 7.73917C13.2723 7.75323 13.2663 7.7669 13.2604 7.77993C12.8368 8.07043 11.9929 8.47977 11.2365 8.66037C10.3292 8.877 9.21377 9.00723 8 9.00723C6.78623 9.00723 5.67083 8.877 4.7635 8.66037C4.0004 8.4782 3.14835 8.06323 2.72846 7.77227C2.72461 7.76417 2.72072 7.75567 2.71684 7.74693C2.69973 7.7083 2.68574 7.67047 2.67659 7.637C2.66785 7.60507 2.6668 7.5889 2.66668 7.58707C2.66667 7.5869 2.66668 7.587 2.66668 7.58707C2.66668 7.57863 2.67013 7.47443 2.89495 7.28953C3.11515 7.10847 3.47407 6.91563 3.97637 6.74092C4.97473 6.39366 6.3973 6.16667 8 6.16667C9.6027 6.16667 11.0253 6.39366 12.0236 6.74092C12.5259 6.91563 12.8848 7.10847 13.105 7.28953C13.3002 7.45003 13.3286 7.54963 13.3327 7.57867ZM1.65059 8.57707L7.15143 17.3991C7.54293 18.027 8.45707 18.027 8.84857 17.3991L14.3511 8.57433C14.357 8.56493 14.3626 8.5554 14.368 8.5457L13.7854 8.2216C14.368 8.5457 14.3679 8.5458 14.368 8.5457L14.3684 8.545L14.3688 8.54417L14.37 8.54203L14.3733 8.53607C14.3759 8.53133 14.3792 8.52513 14.3832 8.51757C14.3913 8.5025 14.4021 8.48183 14.4147 8.4567C14.4397 8.40693 14.4732 8.337 14.5072 8.2561C14.5634 8.12263 14.6667 7.8563 14.6667 7.58697C14.6667 7.0191 14.3343 6.57418 13.9519 6.2597C13.5649 5.94142 13.0451 5.68454 12.4617 5.48159C11.2885 5.07352 9.711 4.83333 8 4.83333C6.289 4.83333 4.71153 5.07352 3.53833 5.48159C2.95488 5.68454 2.4351 5.94143 2.04806 6.2597C1.66565 6.57418 1.33333 7.0191 1.33333 7.58697C1.33333 7.87583 1.43088 8.13593 1.49774 8.2869C1.53458 8.37007 1.57116 8.43987 1.59896 8.48963C1.61299 8.5148 1.62516 8.5355 1.6345 8.55097C1.63918 8.55873 1.64318 8.56523 1.64639 8.57037L1.64887 8.57433L1.65059 8.57707ZM11.9956 9.832L8 16.24L4.00437 9.832C4.15537 9.8797 4.30597 9.92193 4.4539 9.95727C5.47603 10.2013 6.6967 10.3406 8 10.3406C9.3033 10.3406 10.524 10.2013 11.5461 9.95727C11.694 9.92193 11.8446 9.8797 11.9956 9.832Z" fill="#0D0D1C"/>
</g>
<path d="M33.188 19.25V6.65H35.564V11.852H40.244V6.65H42.62V19.25H40.244V14.012H35.564V19.25H33.188ZM49.5229 19.502C47.9629 19.502 46.7269 19.07 45.8149 18.206C44.9029 17.33 44.4469 16.082 44.4469 14.462V11.438C44.4469 9.818 44.9029 8.576 45.8149 7.712C46.7269 6.836 47.9629 6.398 49.5229 6.398C51.0709 6.398 52.2649 6.824 53.1049 7.676C53.9569 8.516 54.3829 9.674 54.3829 11.15V11.258H52.0429V11.078C52.0429 10.334 51.8329 9.722 51.4129 9.242C51.0049 8.762 50.3749 8.522 49.5229 8.522C48.6829 8.522 48.0229 8.78 47.5429 9.296C47.0629 9.812 46.8229 10.514 46.8229 11.402V14.498C46.8229 15.374 47.0629 16.076 47.5429 16.604C48.0229 17.12 48.6829 17.378 49.5229 17.378C50.3749 17.378 51.0049 17.138 51.4129 16.658C51.8329 16.166 52.0429 15.554 52.0429 14.822V14.498H54.3829V14.75C54.3829 16.226 53.9569 17.39 53.1049 18.242C52.2649 19.082 51.0709 19.502 49.5229 19.502ZM56.063 19.25V6.65H58.439V19.25H56.063ZM64.8599 19.25V6.65H70.3319C71.1239 6.65 71.8139 6.788 72.4019 7.064C72.9899 7.34 73.4459 7.73 73.7699 8.234C74.0939 8.738 74.2559 9.332 74.2559 10.016V10.232C74.2559 10.988 74.0759 11.6 73.7159 12.068C73.3559 12.536 72.9119 12.878 72.3839 13.094V13.418C72.8639 13.442 73.2359 13.61 73.4999 13.922C73.7639 14.222 73.8959 14.624 73.8959 15.128V19.25H71.5199V15.47C71.5199 15.182 71.4419 14.948 71.2859 14.768C71.1419 14.588 70.8959 14.498 70.5479 14.498H67.2359V19.25H64.8599ZM67.2359 12.338H70.0799C70.6439 12.338 71.0819 12.188 71.3939 11.888C71.7179 11.576 71.8799 11.168 71.8799 10.664V10.484C71.8799 9.98 71.7239 9.578 71.4119 9.278C71.0999 8.966 70.6559 8.81 70.0799 8.81H67.2359V12.338ZM80.1093 19.502C79.2213 19.502 78.4353 19.316 77.7513 18.944C77.0793 18.56 76.5513 18.026 76.1673 17.342C75.7953 16.646 75.6093 15.83 75.6093 14.894V14.678C75.6093 13.742 75.7953 12.932 76.1673 12.248C76.5393 11.552 77.0613 11.018 77.7333 10.646C78.4053 10.262 79.1853 10.07 80.0732 10.07C80.9493 10.07 81.7113 10.268 82.3593 10.664C83.0073 11.048 83.5113 11.588 83.8712 12.284C84.2313 12.968 84.4113 13.766 84.4113 14.678V15.452H77.9133C77.9373 16.064 78.1653 16.562 78.5973 16.946C79.0293 17.33 79.5573 17.522 80.1813 17.522C80.8173 17.522 81.2853 17.384 81.5853 17.108C81.8853 16.832 82.1133 16.526 82.2693 16.19L84.1233 17.162C83.9553 17.474 83.7093 17.816 83.3853 18.188C83.0733 18.548 82.6533 18.86 82.1253 19.124C81.5973 19.376 80.9253 19.502 80.1093 19.502ZM77.9313 13.76H82.1073C82.0593 13.244 81.8493 12.83 81.4773 12.518C81.1173 12.206 80.6433 12.05 80.0553 12.05C79.4433 12.05 78.9573 12.206 78.5973 12.518C78.2373 12.83 78.0153 13.244 77.9313 13.76ZM89.8743 19.502C88.7103 19.502 87.7563 19.25 87.0123 18.746C86.2683 18.242 85.8183 17.522 85.6623 16.586L87.7503 16.046C87.8343 16.466 87.9723 16.796 88.1643 17.036C88.3683 17.276 88.6143 17.45 88.9023 17.558C89.2023 17.654 89.5263 17.702 89.8743 17.702C90.4023 17.702 90.7923 17.612 91.0443 17.432C91.2963 17.24 91.4223 17.006 91.4223 16.73C91.4223 16.454 91.3023 16.244 91.0623 16.1C90.8223 15.944 90.4383 15.818 89.9103 15.722L89.4062 15.632C88.7823 15.512 88.2123 15.35 87.6963 15.146C87.1803 14.93 86.7663 14.636 86.4543 14.264C86.1423 13.892 85.9863 13.412 85.9863 12.824C85.9863 11.936 86.3103 11.258 86.9583 10.79C87.6063 10.31 88.4583 10.07 89.5143 10.07C90.5103 10.07 91.3383 10.292 91.9983 10.736C92.6583 11.18 93.0903 11.762 93.2943 12.482L91.1883 13.13C91.0923 12.674 90.8943 12.35 90.5943 12.158C90.3063 11.966 89.9463 11.87 89.5143 11.87C89.0823 11.87 88.7523 11.948 88.5243 12.104C88.2963 12.248 88.1823 12.452 88.1823 12.716C88.1823 13.004 88.3023 13.22 88.5423 13.364C88.7823 13.496 89.1063 13.598 89.5143 13.67L90.0183 13.76C90.6903 13.88 91.2963 14.042 91.8363 14.246C92.3883 14.438 92.8203 14.72 93.1323 15.092C93.4563 15.452 93.6183 15.944 93.6183 16.568C93.6183 17.504 93.2763 18.23 92.5923 18.746C91.9203 19.25 91.0143 19.502 89.8743 19.502ZM99.4061 19.502C98.5181 19.502 97.7321 19.316 97.0481 18.944C96.3761 18.56 95.8481 18.026 95.4641 17.342C95.0921 16.646 94.9061 15.83 94.9061 14.894V14.678C94.9061 13.742 95.0921 12.932 95.4641 12.248C95.8361 11.552 96.3581 11.018 97.0301 10.646C97.7021 10.262 98.4821 10.07 99.3701 10.07C100.246 10.07 101.008 10.268 101.656 10.664C102.304 11.048 102.808 11.588 103.168 12.284C103.528 12.968 103.708 13.766 103.708 14.678V15.452H97.2101C97.2341 16.064 97.4621 16.562 97.8941 16.946C98.3261 17.33 98.8541 17.522 99.4781 17.522C100.114 17.522 100.582 17.384 100.882 17.108C101.182 16.832 101.41 16.526 101.566 16.19L103.42 17.162C103.252 17.474 103.006 17.816 102.682 18.188C102.37 18.548 101.95 18.86 101.422 19.124C100.894 19.376 100.222 19.502 99.4061 19.502ZM97.2281 13.76H101.404C101.356 13.244 101.146 12.83 100.774 12.518C100.414 12.206 99.9401 12.05 99.3521 12.05C98.7401 12.05 98.2541 12.206 97.8941 12.518C97.5341 12.83 97.3121 13.244 97.2281 13.76ZM108.235 19.502C107.599 19.502 107.029 19.394 106.525 19.178C106.021 18.95 105.619 18.626 105.319 18.206C105.031 17.774 104.887 17.252 104.887 16.64C104.887 16.028 105.031 15.518 105.319 15.11C105.619 14.69 106.027 14.378 106.543 14.174C107.071 13.958 107.671 13.85 108.343 13.85H110.791V13.346C110.791 12.926 110.659 12.584 110.395 12.32C110.131 12.044 109.711 11.906 109.135 11.906C108.571 11.906 108.151 12.038 107.875 12.302C107.599 12.554 107.419 12.884 107.335 13.292L105.247 12.59C105.391 12.134 105.619 11.72 105.931 11.348C106.255 10.964 106.681 10.658 107.209 10.43C107.749 10.19 108.403 10.07 109.171 10.07C110.347 10.07 111.277 10.364 111.961 10.952C112.645 11.54 112.987 12.392 112.987 13.508V16.838C112.987 17.198 113.155 17.378 113.491 17.378H114.211V19.25H112.699C112.255 19.25 111.889 19.142 111.601 18.926C111.313 18.71 111.169 18.422 111.169 18.062V18.044H110.827C110.779 18.188 110.671 18.38 110.503 18.62C110.335 18.848 110.071 19.052 109.711 19.232C109.351 19.412 108.859 19.502 108.235 19.502ZM108.631 17.666C109.267 17.666 109.783 17.492 110.179 17.144C110.587 16.784 110.791 16.31 110.791 15.722V15.542H108.505C108.085 15.542 107.755 15.632 107.515 15.812C107.275 15.992 107.155 16.244 107.155 16.568C107.155 16.892 107.281 17.156 107.533 17.36C107.785 17.564 108.151 17.666 108.631 17.666ZM115.604 19.25V10.322H117.836V11.33H118.16C118.292 10.97 118.508 10.706 118.808 10.538C119.12 10.37 119.48 10.286 119.888 10.286H120.968V12.302H119.852C119.276 12.302 118.802 12.458 118.43 12.77C118.058 13.07 117.872 13.538 117.872 14.174V19.25H115.604ZM126.345 19.502C125.481 19.502 124.695 19.322 123.987 18.962C123.291 18.602 122.739 18.08 122.331 17.396C121.923 16.712 121.719 15.884 121.719 14.912V14.66C121.719 13.688 121.923 12.86 122.331 12.176C122.739 11.492 123.291 10.97 123.987 10.61C124.695 10.25 125.481 10.07 126.345 10.07C127.197 10.07 127.929 10.22 128.541 10.52C129.153 10.82 129.645 11.234 130.017 11.762C130.401 12.278 130.653 12.866 130.773 13.526L128.577 13.994C128.529 13.634 128.421 13.31 128.253 13.022C128.085 12.734 127.845 12.506 127.533 12.338C127.233 12.17 126.855 12.086 126.399 12.086C125.943 12.086 125.529 12.188 125.157 12.392C124.797 12.584 124.509 12.878 124.293 13.274C124.089 13.658 123.987 14.132 123.987 14.696V14.876C123.987 15.44 124.089 15.92 124.293 16.316C124.509 16.7 124.797 16.994 125.157 17.198C125.529 17.39 125.943 17.486 126.399 17.486C127.083 17.486 127.599 17.312 127.947 16.964C128.307 16.604 128.535 16.136 128.631 15.56L130.827 16.082C130.671 16.718 130.401 17.3 130.017 17.828C129.645 18.344 129.153 18.752 128.541 19.052C127.929 19.352 127.197 19.502 126.345 19.502ZM132.432 19.25V6.65H134.7V11.42H135.024C135.12 11.228 135.27 11.036 135.474 10.844C135.678 10.652 135.948 10.496 136.284 10.376C136.632 10.244 137.07 10.178 137.598 10.178C138.294 10.178 138.9 10.34 139.416 10.664C139.944 10.976 140.352 11.414 140.64 11.978C140.928 12.53 141.072 13.178 141.072 13.922V19.25H138.804V14.102C138.804 13.43 138.636 12.926 138.3 12.59C137.976 12.254 137.508 12.086 136.896 12.086C136.2 12.086 135.66 12.32 135.276 12.788C134.892 13.244 134.7 13.886 134.7 14.714V19.25H132.432ZM147.328 19.502C146.44 19.502 145.654 19.316 144.97 18.944C144.298 18.56 143.77 18.026 143.386 17.342C143.014 16.646 142.828 15.83 142.828 14.894V14.678C142.828 13.742 143.014 12.932 143.386 12.248C143.758 11.552 144.28 11.018 144.952 10.646C145.624 10.262 146.404 10.07 147.292 10.07C148.168 10.07 148.93 10.268 149.578 10.664C150.226 11.048 150.73 11.588 151.09 12.284C151.45 12.968 151.63 13.766 151.63 14.678V15.452H145.132C145.156 16.064 145.384 16.562 145.816 16.946C146.248 17.33 146.776 17.522 147.4 17.522C148.036 17.522 148.504 17.384 148.804 17.108C149.104 16.832 149.332 16.526 149.488 16.19L151.342 17.162C151.174 17.474 150.928 17.816 150.604 18.188C150.292 18.548 149.872 18.86 149.344 19.124C148.816 19.376 148.144 19.502 147.328 19.502ZM145.15 13.76H149.326C149.278 13.244 149.068 12.83 148.696 12.518C148.336 12.206 147.862 12.05 147.274 12.05C146.662 12.05 146.176 12.206 145.816 12.518C145.456 12.83 145.234 13.244 145.15 13.76ZM153.385 19.25V10.322H155.617V11.33H155.941C156.073 10.97 156.289 10.706 156.589 10.538C156.901 10.37 157.261 10.286 157.669 10.286H158.749V12.302H157.633C157.057 12.302 156.583 12.458 156.211 12.77C155.839 13.07 155.653 13.538 155.653 14.174V19.25H153.385Z" fill="#0D0D1C"/>
<defs>
<clipPath id="clip0_1_7">
<rect width="16" height="16" fill="white" transform="translate(0 3.5)"/>
</clipPath>
</defs>
</svg>
